<svg xmlns="http://www.w3.org/2000/svg" fill="none" viewBox="0 0 24 24" stroke-width="1.5" stroke="blue" class="size-6">  
<path stroke-linecap="round" stroke-linejoin="round" d="M9 12h3.75M9 15h3.75M9 18h3.75m3 .75H18a2.25 2.25 0 0 0 2.25-2.25V6.108a2.25 2.25 0 0 0-1.976-2.192c-.375-.027-.75-.054-1.123-.08m-5.801 0a2.25 2.25 0 0 1 2.25-2.25H15a2.25 2.25 0 0 1 2.15 1.586m-5.8 0A9.017 9.017 0 0 0 6 3.75c-.621 0-1.125.504-1.125 1.125v11.25c0 .621.504 1.125 1.125 1.125h9.75c.621 0 1.125-.504 1.125-1.125V9.375c0-.621-.504-1.125-1.125-1.125H8.25ZM6.75 12h.008v.008H6.75V12Zm0 3h.008v.008H6.75V15Zm0 3h.008v.008H6.75V18Z"></path>
</svg>
