<svg xmlns="http://www.w3.org/2000/svg" fill="none" viewBox="0 0 24 24" stroke-width="1.5" stroke="black" class="size-6">  
<path stroke-linecap="round" stroke-linejoin="round" d="M9.594 3.94a1.125 1.125 0 0 1 1.11-.94h2.593a1.125 1.125 0 0 1 1.11.94l.213 1.281c.063.374.313.686.645.87.074.04.147.083.22.127.325.196.72.257 1.075.124l1.217-.456a1.125 1.125 0 0 1 1.37.49l1.296 2.247a1.125 1.125 0 0 1-.26 1.431l-1.003.827a1.125 1.125 0 0 0 0 1.247l1.004.827a1.125 1.125 0 0 1 .26 1.43l-1.298 2.247a1.125 1.125 0 0 1-1.369.491l-1.217-.456a1.125 1.125 0 0 0-1.076.124 6.47 6.47 0 0 1-.22.128 1.125 1.125 0 0 0-.644.869l-.213 1.281a1.125 1.125 0 0 1-1.11.94h-2.594a1.125 1.125 0 0 1-1.11-.94l-.213-1.281a1.125 1.125 0 0 0-.644-.87 6.52 6.52 0 0 1-.22-.127 1.125 1.125 0 0 0-1.076-.124l-1.217.456a1.125 1.125 0 0 1-1.369-.49l-1.297-2.247a1.125 1.125 0 0 1 .26-1.431l1.004-.827a1.125 1.125 0 0 0 0-1.247l-1.004-.827a1.125 1.125 0 0 1-.26-1.43l1.297-2.247a1.125 1.125 0 0 1 1.37-.491l1.216.456a1.125 1.125 0 0 0 1.296-.252 6.5 6.5 0 0 1 .22-.128c.331-.183.581-.495.644-.869l.214-1.28Z"></path>
  <path stroke-linecap="round" stroke-linejoin="round" d="M15 12a3 3 0 1 1-6 0 3 3 0 0 1 6 0Z"></path>
</svg>
